# xmcd
#
# Track frame offsets:
#        150
#        30598
#        55422
#        86244
#        118931
#        142733
#        151021
#
# Disc length: 2384 seconds
#
# Revision: 4
# Processed by: cddbd v1.5.1PL2 Copyright (c) Steve Scherf et al.
# Submitted via: ExactAudioCopy v0.95b3
#
DISCID=54094e07
DTITLE=Mike Stern - Neesh
DYEAR=1983
DGENRE=Jazz
TTITLE0=Zee Frizz
TTITLE1=Fine Line
TTITLE2=Bruze
TTITLE3=Mumbley Peg
TTITLE4=Up-Ology
TTITLE5=Banacos
TTITLE6=Neesh Zone
EXTD=
EXTT0=
EXTT1=
EXTT2=
EXTT3=
EXTT4=
EXTT5=
EXTT6=
PLAYORDER=
